/* XPM */
static char *_b63b194ee4943408d6684dfb2ea6efaRczPJOA5LP9N53fj[] = {
/* columns rows colors chars-per-pixel */
"26 26 183 2 ",
"   c None",
".  c #110F0E",
"X  c #12110F",
"o  c #121616",
"O  c #131E25",
"+  c #181C21",
"@  c #1B2124",
"#  c #172229",
"$  c #1A2831",
"%  c #2E2D2E",
"&  c #222B32",
"*  c #273538",
"=  c #373430",
"-  c #1F3A4B",
";  c #1C3342",
":  c #203C4E",
">  c #234155",
",  c #24455B",
"<  c #28475B",
"1  c #254962",
"2  c #2A4D65",
"3  c #274F6A",
"4  c #29506B",
"5  c #2A5673",
"6  c #2C5C7C",
"7  c #2B5977",
"8  c #365C75",
"9  c #40474F",
"0  c #4A4B4A",
"q  c #434C4D",
"w  c #514D48",
"e  c #53524F",
"r  c #4D555E",
"t  c #5C5755",
"y  c #56595C",
"u  c #5D5C5C",
"i  c #595758",
"p  c #615A55",
"a  c #605E5C",
"s  c #66635F",
"d  c #405667",
"f  c #505E61",
"g  c #49656E",
"h  c #5E6169",
"j  c #44637C",
"k  c #4A6171",
"l  c #6A6662",
"z  c #6B6A67",
"x  c #6F6F6D",
"c  c #736C66",
"v  c #75726F",
"b  c #6E7677",
"n  c #7A7876",
"m  c #74757A",
"M  c #7C7D7D",
"N  c #747575",
"B  c #8D766D",
"V  c #807F7D",
"C  c #9A847A",
"Z  c #A0837B",
"A  c #2D5F81",
"S  c #2F6386",
"D  c #31678A",
"F  c #336E95",
"G  c #35739D",
"H  c #38749C",
"J  c #3977A1",
"K  c #486382",
"L  c #547781",
"P  c #416B9A",
"I  c #427394",
"U  c #677B88",
"Y  c #7A7D80",
"T  c #407CA3",
"R  c #53809D",
"E  c #6F8286",
"W  c #798489",
"Q  c #688998",
"!  c #748E9D",
"~  c #768892",
"^  c #7D949C",
"/  c #4B84A9",
"(  c #5687A7",
")  c #5A8EB0",
"_  c #6388A0",
"`  c #6A91AA",
"'  c #7196AE",
"]  c #7E9AAC",
"[  c #6493B2",
"{  c #6C97B2",
"}  c #7898B3",
"|  c #7BA6B7",
" . c #858583",
".. c #8D8D8C",
"X. c #878987",
"o. c #958C83",
"O. c #92918F",
"+. c #9B938B",
"@. c #8E9698",
"#. c #959592",
"$. c #979798",
"%. c #9D9D9C",
"&. c #989A98",
"*. c #A49A8F",
"=. c #B4998F",
"-. c #B79085",
";. c #A29A92",
":. c #A59A94",
">. c #AAA096",
",. c #A8A29C",
"<. c #BEA292",
"1. c #B4AA9E",
"2. c #939DA5",
"3. c #A09FA0",
"4. c #96A3A9",
"5. c #9AA2A5",
"6. c #8DACB5",
"7. c #9AAEB9",
"8. c #A5A4A2",
"9. c #A8A7A7",
"0. c #ABAAA6",
"q. c #ACACAC",
"w. c #A6ABAA",
"e. c #B7AEA4",
"r. c #B9AEA1",
"t. c #BCB1A6",
"y. c #A4AEB2",
"u. c #A9B3B8",
"i. c #B4B4B1",
"p. c #B5BBBC",
"a. c #BCBCBA",
"s. c #BAB9B6",
"d. c #D89D90",
"f. c #EFAA9C",
"g. c #C5B9AD",
"h. c #CBB1A1",
"j. c #C0BFBC",
"k. c #E9B7A9",
"l. c #FABCAD",
"z. c #CEC2B5",
"x. c #C1C1BE",
"c. c #D3C7BA",
"v. c #DBCABC",
"b. c #D6CABC",
"n. c #FCCEBE",
"m. c #88ADC4",
"M. c #8EB6C6",
"N. c #93B5C9",
"B. c #A9BCC6",
"V. c #B0BAC4",
"C. c #ACBFD2",
"Z. c #B7C3CC",
"A. c #ACC4D1",
"S. c #BACCDA",
"D. c #B6C7D8",
"F. c #B4CAE2",
"G. c #BBD0E7",
"H. c #C4C4C3",
"J. c #C9C8C5",
"K. c #CACCC9",
"L. c #C0C8CA",
"P. c #DDD0C2",
"I. c #C1CCD5",
"U. c #CCD2D3",
"Y. c #D4D4D1",
"T. c #D8D8D7",
"R. c #E1D3C4",
"E. c #EFDCCC",
"W. c #FEE0CF",
"Q. c #EFE2D3",
"!. c #E2E2DF",
"~. c #F5E3D4",
"^. c #FFE7D6",
"/. c #FBEBDB",
"(. c #CBF0F9",
"). c #E5E5E2",
"_. c #ECECE9",
"`. c #E9E9E6",
"'. c #EFF0EC",
"]. c #FFF1E0",
"[. c #F0F1EE",
"{. c #E2EAF0",
"}. c #FEFEFC",
/* pixels */
"                                                    ",
"                                                    ",
"                    & 1 5 7 6 5 , O                 ",
"                $ 9 k [ ' ` ) J A f u               ",
"              2 R 7.Z.H.Z.a.U.S.[ 8 d 2             ",
"            4 { u.0.z  .+.u 0.&.T.N.H H 5           ",
"          < ' &.e s. .Y &...8.i ..Y.M.G G <         ",
"        ; _ W O.M O.2.A._.j.x.0.X.u U.[ G 1 $       ",
"      o j @.p.8.!.a.K F.Y. .}.).6.M ,.A.H 6 ,       ",
"    : > ! w.(.K.).i P G.T.p `.J.M.E n p.) G 6       ",
"  > S j @.4.| x :.i j 2.0.c j.a.L ^ p.%.m.F 3 #     ",
"  S G Q 8.E M o.e.*.c.b.g.*.:.+.y Q ).#.A.G G ,     ",
"  7 H ! i.;.R.o.>.Q.].]./.R./.~.c.n ).%.V.T G F -   ",
"    4 ~ J.t.z.X = Q.]./.].].o.w b.e.!.i.u./ G G 5   ",
"    < W Y.=.k.B >.E.Q.~././.p . t.t.).x.u./ G G D   ",
"    : ~ !.Z f.n.].v.<.<.h.~.P.-.k.*.'.J.y.I S 5 >   ",
"    O X.U.p =./.].]./.~.~.].^.l.d.*.}.H.4.8 3 #     ",
"      #.I.u 1.P./.~.].].].].].W.C v [.s.] J S       ",
"      O.D.y w c o.+.b.>.P.z.g.P.t.8.{.%.( G ,       ",
"      n S.^ x.8.M M l ,.l  .l t t V.S.U H 7         ",
"      = Z.| b H._.T.i.n z 9.J.$.0 } 2.2 , O         ",
"        O.E + % m q.H...M s.9.0 k 7.N f     .       ",
"          f +               . * L q y m %           ",
"                                                    ",
"                                                    ",
"                                                    "
};
