/* XPM */
static char *a485c9168c5749c5f5475d82d7d00a75iI447dK0F1SPEoy9[] = {
/* columns rows colors chars-per-pixel */
"20 20 227 2 ",
"   c None",
".  c #151919",
"X  c gray21",
"o  c #31373C",
"O  c #31373D",
"+  c #1F3A4B",
"@  c #1F3B4D",
"#  c #1E3F55",
"$  c #203D4F",
"%  c #213E51",
"&  c #223F53",
"*  c #224053",
"=  c #234359",
"-  c #23445A",
";  c #22465D",
":  c #244860",
">  c #264960",
",  c #264C65",
"<  c #294A60",
"1  c #294B61",
"2  c #274E68",
"3  c #28516B",
"4  c #28526D",
"5  c #38576D",
"6  c #295571",
"7  c #2B5874",
"8  c #2B5D7D",
"9  c #444245",
"0  c #4F4B45",
"q  c #464549",
"w  c #40474F",
"e  c #5A544E",
"r  c #424C57",
"t  c #5A5A58",
"y  c #665C55",
"u  c #6D625B",
"i  c #495564",
"p  c #415E66",
"a  c #485B60",
"s  c #5F5F66",
"d  c #50606A",
"f  c #4B687A",
"g  c #48687F",
"h  c #6A6966",
"j  c #6E6964",
"k  c #6F6E6D",
"l  c #606F71",
"z  c #6C6F76",
"x  c #657077",
"c  c #6C7072",
"v  c #6F7574",
"b  c #757473",
"n  c #7A7874",
"m  c #7D7A75",
"M  c #7F7976",
"N  c #767D7D",
"B  c #7C7C7A",
"V  c #8C756D",
"C  c #837F7D",
"Z  c #81807F",
"A  c #2E6285",
"S  c #2E6386",
"D  c #306486",
"F  c #30678C",
"G  c #316A8F",
"H  c #326A8F",
"J  c #336C92",
"K  c #316D94",
"L  c #34729B",
"P  c #34749D",
"I  c #37759E",
"U  c #3F7AA1",
"Y  c #456C86",
"T  c #4A6D85",
"R  c #48728E",
"E  c #647783",
"W  c #647C8B",
"Q  c #417AA0",
"!  c #417CA3",
"~  c #447EA4",
"^  c #5D8198",
"/  c #5C8299",
"(  c #618094",
")  c #748F96",
"_  c #788D91",
"`  c #7A8B94",
"'  c #7E8D98",
"]  c #5583A1",
"[  c #5985A1",
"{  c #5F87A0",
"}  c #5087AB",
"|  c #5889A9",
" . c #598CAE",
".. c #5D8FAF",
"X. c #6B8DA3",
"o. c #7B98A3",
"O. c #7E9BBB",
"+. c #7899BE",
"@. c #838382",
"#. c #848381",
"$. c #888887",
"%. c #8B8B89",
"&. c #8F8F8D",
"*. c #918880",
"=. c #918D89",
"-. c #8B908D",
";. c #91908D",
":. c #93908E",
">. c #9B9288",
",. c #98928B",
"<. c #9B938B",
"1. c #8D9090",
"2. c #8B9397",
"3. c #8C9294",
"4. c #909092",
"5. c #959592",
"6. c #979592",
"7. c #999895",
"8. c #989896",
"9. c #90969B",
"0. c #959A9B",
"q. c #9D9D9C",
"w. c #9D9D9D",
"e. c #A99388",
"r. c #A2998E",
"t. c #A49B91",
"y. c #ADA297",
"u. c #A8A199",
"i. c #ABA39A",
"p. c #ACA69D",
"a. c #B0A499",
"s. c #B4A49E",
"d. c #B2A99F",
"f. c #8398A1",
"g. c #859EA4",
"h. c #8E9EA6",
"j. c #909CA9",
"k. c #8CA8AE",
"l. c #9AA4A7",
"z. c #99A7AE",
"x. c #8EA3B5",
"c. c #8DACBF",
"v. c #9DADB6",
"b. c #9EB0B4",
"n. c gray63",
"m. c #A3A3A1",
"M. c #A4A3A0",
"N. c #A7A7A4",
"B. c #A7A7A5",
"V. c #A8A7A4",
"C. c #A3A9AA",
"Z. c #A1A8AD",
"A. c #A5AAAC",
"S. c #ABAFAD",
"D. c #A9ADAE",
"F. c #ABAFAF",
"G. c #B0A9A0",
"H. c #B0ABA5",
"J. c #B0B0AD",
"K. c #BFB4AB",
"L. c #AEB5B6",
"P. c #ADB5BC",
"I. c #B2B2B1",
"U. c #B2B5B7",
"Y. c #BAB8B4",
"T. c #B9B8B7",
"R. c #B3B9B9",
"E. c #B6BAB9",
"W. c #BAB8B8",
"Q. c #BCBDBD",
"!. c #C99A90",
"~. c #C4A99C",
"^. c #D9A79A",
"/. c #E3A598",
"(. c #C2B6AA",
"). c #C1B8AD",
"_. c #C1B9AF",
"`. c #D5BDAD",
"'. c #C5C2BD",
"]. c #D4C4B8",
"[. c #D9C9BB",
"{. c #E0CABB",
"}. c #E4CEBF",
"|. c #87AAC0",
" X c #97B5C7",
".X c #A7B7C6",
"XX c #A8BAC7",
"oX c #AEC6CA",
"OX c #B3C5C7",
"+X c #B5C4CA",
"@X c #ACC3D0",
"#X c #C3C3C1",
"$X c #C7C7C5",
"%X c #C4C7C7",
"&X c #CBC9C5",
"*X c #C0C7CD",
"=X c #CDCDCB",
"-X c #DCCEC0",
";X c #D0CFCC",
":X c #D0D0CE",
">X c #D4D6D8",
",X c #DBDBD9",
"<X c #E5D0C0",
"1X c #E4D6C7",
"2X c #E8D9CA",
"3X c #EADCCC",
"4X c #EADCCD",
"5X c #EBDECF",
"6X c #F3D0C1",
"7X c #F8D1C2",
"8X c #F1DFCF",
"9X c #F0E3D4",
"0X c #F6E8D8",
"qX c #F7E8D8",
"wX c #FFE9D8",
"eX c #FBEDDD",
"rX c #FBEEDE",
"tX c #FCEDDD",
"yX c #E7E5E2",
"uX c #E6E6E2",
"iX c #E6E6E3",
"pX c #FFF0E0",
"aX c #FFF1E1",
"sX c #FFF2E1",
"dX c #FFF2E2",
"fX c #F0F0EC",
"gX c #F6F6F3",
/* pixels */
"                                        ",
"                  # ; -                 ",
"              r T [ ] Q S r 9           ",
"          ; ^ z.L.E.F.+X|.g 5 -         ",
"        1 X.3.M.k &.Z 6.M.@X~ H %       ",
"        ( &.b 8.j.%XJ.w.#.8. XI 2       ",
"      f l.F.=X9.O.>XV.gXb.N E...8 *     ",
"  % 1 ` oXOX'.i +.=XM uXk._ :.c.L ,     ",
"  S R 0.) b <.Z n.G.*.H.x k.I.v.! 6     ",
"  H / N.p.a.a.3XpXqX-X1XK.-.;XZ.} L 3   ",
"  @ W Y.].y 0 qXpXpX5Xe r.K.,XA. .P H   ",
"    E &X!.^.[.[.`.}.2Xu e.K.uXF.| J D $ ",
"    x #XV 6XsX8X<X}.rX7X/.s.fXZ.Y >     ",
"    @.P.j (.5X9XrXrXtXwX~.;.uXl.Q 4     ",
"      .Xc n m ,.i.d.i.r.>.U.+X^ J       ",
"      XXf.W.$XM.%.h 6.;.t x.' 7 $       ",
"      2.d X 4.Q.w.B I.$.a o.b o         ",
"        O             . p   d q         ",
"                                        ",
"                                        "
};
